<mxfile host="65bd71144e">
    <diagram id="pIaEtrtLPv3HG8r1JEND" name="Page-1">
        <mxGraphModel dx="463" dy="490" grid="1" gridSize="10" guides="1" tooltips="1" connect="1" arrows="1" fold="1" page="1" pageScale="1" pageWidth="850" pageHeight="1100" math="0" shadow="0">
            <root>
                <mxCell id="0"/>
                <mxCell id="1" parent="0"/>
                <mxCell id="2" value="" style="rounded=0;whiteSpace=wrap;html=1;" parent="1" vertex="1">
                    <mxGeometry x="80" y="80" width="400" height="300" as="geometry"/>
                </mxCell>
                <mxCell id="6" value="Calculate" style="labelPosition=center;verticalLabelPosition=middle;align=center;html=1;shape=mxgraph.basic.button;dx=10;" parent="1" vertex="1">
                    <mxGeometry x="90" y="300" width="80" height="30" as="geometry"/>
                </mxCell>
                <mxCell id="16" value="Length:" style="fillColor=none;strokeColor=none;html=1;fontSize=11;fontStyle=0;align=left;fontColor=#596780;fontStyle=1;fontSize=11" vertex="1" parent="1">
                    <mxGeometry x="90" y="190" width="240" height="20" as="geometry"/>
                </mxCell>
                <mxCell id="17" value="length..." style="rounded=1;arcSize=9;fillColor=#F7F8F9;align=left;spacingLeft=5;strokeColor=#DEE1E6;html=1;strokeWidth=2;fontColor=#596780;fontSize=12" vertex="1" parent="1">
                    <mxGeometry x="90" y="210" width="160" height="14" as="geometry"/>
                </mxCell>
                <mxCell id="19" value="width..." style="rounded=1;arcSize=9;fillColor=#F7F8F9;align=left;spacingLeft=5;strokeColor=#DEE1E6;html=1;strokeWidth=2;fontColor=#596780;fontSize=12" vertex="1" parent="1">
                    <mxGeometry x="90" y="244" width="160" height="14" as="geometry"/>
                </mxCell>
                <mxCell id="20" value="height..." style="rounded=1;arcSize=9;fillColor=#F7F8F9;align=left;spacingLeft=5;strokeColor=#DEE1E6;html=1;strokeWidth=2;fontColor=#596780;fontSize=12" vertex="1" parent="1">
                    <mxGeometry x="90" y="280" width="160" height="14" as="geometry"/>
                </mxCell>
                <mxCell id="21" value="Height:" style="fillColor=none;strokeColor=none;html=1;fontSize=11;fontStyle=0;align=left;fontColor=#596780;fontStyle=1;fontSize=11" vertex="1" parent="1">
                    <mxGeometry x="90" y="260" width="240" height="20" as="geometry"/>
                </mxCell>
                <mxCell id="22" value="Width:" style="fillColor=none;strokeColor=none;html=1;fontSize=11;fontStyle=0;align=left;fontColor=#596780;fontStyle=1;fontSize=11" vertex="1" parent="1">
                    <mxGeometry x="90" y="224" width="240" height="20" as="geometry"/>
                </mxCell>
                <mxCell id="26" value="" style="sketch=0;outlineConnect=0;fontColor=#232F3E;gradientColor=none;fillColor=#D45B07;strokeColor=none;dashed=0;verticalLabelPosition=bottom;verticalAlign=top;align=center;html=1;fontSize=12;fontStyle=0;aspect=fixed;pointerEvents=1;shape=mxgraph.aws4.container_registry_image;" vertex="1" parent="1">
                    <mxGeometry x="290" y="160" width="158" height="158" as="geometry"/>
                </mxCell>
                <mxCell id="27" value="Volume of a Pyramid, with JS" style="text;strokeColor=none;fillColor=none;html=1;fontSize=24;fontStyle=1;verticalAlign=middle;align=center;" vertex="1" parent="1">
                    <mxGeometry x="200" y="80" width="100" height="40" as="geometry"/>
                </mxCell>
                <mxCell id="28" value="Formula:" style="text;html=1;strokeColor=none;fillColor=none;align=center;verticalAlign=middle;whiteSpace=wrap;rounded=0;" vertex="1" parent="1">
                    <mxGeometry x="100" y="110" width="60" height="30" as="geometry"/>
                </mxCell>
                <UserObject label="V = (L x W x H) / 3" placeholders="1" name="Variable" id="29">
                    <mxCell style="text;html=1;strokeColor=none;fillColor=none;align=center;verticalAlign=middle;whiteSpace=wrap;overflow=hidden;" vertex="1" parent="1">
                        <mxGeometry x="70" y="130" width="140" height="20" as="geometry"/>
                    </mxCell>
                </UserObject>
                <UserObject label="Please enter the following&amp;nbsp;&lt;span style=&quot;background-color: rgb(30 , 30 , 30) ; color: rgb(212 , 212 , 212) ; font-family: &amp;#34;consolas&amp;#34; , &amp;#34;courier new&amp;#34; , monospace ; font-size: 14px&quot;&gt;dimensions&lt;/span&gt;&lt;span&gt;:&lt;/span&gt;" placeholders="1" name="Variable" id="nAfjT1JvepFu_Qh119zT-30">
                    <mxCell style="text;html=1;strokeColor=none;fillColor=none;align=center;verticalAlign=middle;whiteSpace=wrap;overflow=hidden;" vertex="1" parent="1">
                        <mxGeometry x="67" y="154" width="190" height="50" as="geometry"/>
                    </mxCell>
                </UserObject>
            </root>
        </mxGraphModel>
    </diagram>
    <diagram id="EfJBTI8J3k9-4t_WPZMU" name="Page-2">
        <mxGraphModel dx="463" dy="490" grid="1" gridSize="10" guides="1" tooltips="1" connect="1" arrows="1" fold="1" page="1" pageScale="1" pageWidth="827" pageHeight="1169" math="0" shadow="0">
            <root>
                <mxCell id="SlAN4rpTddr9tJkAFKHK-0"/>
                <mxCell id="SlAN4rpTddr9tJkAFKHK-1" parent="SlAN4rpTddr9tJkAFKHK-0"/>
                <mxCell id="6VO3gdrZw4tmIweeU7qc-0" value="" style="rounded=0;whiteSpace=wrap;html=1;" vertex="1" parent="SlAN4rpTddr9tJkAFKHK-1">
                    <mxGeometry x="80" y="80" width="400" height="300" as="geometry"/>
                </mxCell>
                <mxCell id="6VO3gdrZw4tmIweeU7qc-1" value="Calculate" style="labelPosition=center;verticalLabelPosition=middle;align=center;html=1;shape=mxgraph.basic.button;dx=10;" vertex="1" parent="SlAN4rpTddr9tJkAFKHK-1">
                    <mxGeometry x="90" y="300" width="80" height="30" as="geometry"/>
                </mxCell>
                <mxCell id="6VO3gdrZw4tmIweeU7qc-2" value="Length:" style="fillColor=none;strokeColor=none;html=1;fontSize=11;fontStyle=0;align=left;fontColor=#596780;fontStyle=1;fontSize=11" vertex="1" parent="SlAN4rpTddr9tJkAFKHK-1">
                    <mxGeometry x="90" y="190" width="240" height="20" as="geometry"/>
                </mxCell>
                <mxCell id="6VO3gdrZw4tmIweeU7qc-3" value="length..." style="rounded=1;arcSize=9;fillColor=#F7F8F9;align=left;spacingLeft=5;strokeColor=#DEE1E6;html=1;strokeWidth=2;fontColor=#596780;fontSize=12" vertex="1" parent="SlAN4rpTddr9tJkAFKHK-1">
                    <mxGeometry x="90" y="210" width="160" height="14" as="geometry"/>
                </mxCell>
                <mxCell id="6VO3gdrZw4tmIweeU7qc-4" value="width..." style="rounded=1;arcSize=9;fillColor=#F7F8F9;align=left;spacingLeft=5;strokeColor=#DEE1E6;html=1;strokeWidth=2;fontColor=#596780;fontSize=12" vertex="1" parent="SlAN4rpTddr9tJkAFKHK-1">
                    <mxGeometry x="90" y="244" width="160" height="14" as="geometry"/>
                </mxCell>
                <mxCell id="6VO3gdrZw4tmIweeU7qc-5" value="height..." style="rounded=1;arcSize=9;fillColor=#F7F8F9;align=left;spacingLeft=5;strokeColor=#DEE1E6;html=1;strokeWidth=2;fontColor=#596780;fontSize=12" vertex="1" parent="SlAN4rpTddr9tJkAFKHK-1">
                    <mxGeometry x="90" y="280" width="160" height="14" as="geometry"/>
                </mxCell>
                <mxCell id="6VO3gdrZw4tmIweeU7qc-6" value="Height:" style="fillColor=none;strokeColor=none;html=1;fontSize=11;fontStyle=0;align=left;fontColor=#596780;fontStyle=1;fontSize=11" vertex="1" parent="SlAN4rpTddr9tJkAFKHK-1">
                    <mxGeometry x="90" y="260" width="240" height="20" as="geometry"/>
                </mxCell>
                <mxCell id="6VO3gdrZw4tmIweeU7qc-7" value="Width:" style="fillColor=none;strokeColor=none;html=1;fontSize=11;fontStyle=0;align=left;fontColor=#596780;fontStyle=1;fontSize=11" vertex="1" parent="SlAN4rpTddr9tJkAFKHK-1">
                    <mxGeometry x="90" y="224" width="240" height="20" as="geometry"/>
                </mxCell>
                <mxCell id="6VO3gdrZw4tmIweeU7qc-8" value="" style="sketch=0;outlineConnect=0;fontColor=#232F3E;gradientColor=none;fillColor=#D45B07;strokeColor=none;dashed=0;verticalLabelPosition=bottom;verticalAlign=top;align=center;html=1;fontSize=12;fontStyle=0;aspect=fixed;pointerEvents=1;shape=mxgraph.aws4.container_registry_image;" vertex="1" parent="SlAN4rpTddr9tJkAFKHK-1">
                    <mxGeometry x="290" y="160" width="158" height="158" as="geometry"/>
                </mxCell>
                <mxCell id="6VO3gdrZw4tmIweeU7qc-9" value="Volume of a Pyramid, with JS" style="text;strokeColor=none;fillColor=none;html=1;fontSize=24;fontStyle=1;verticalAlign=middle;align=center;" vertex="1" parent="SlAN4rpTddr9tJkAFKHK-1">
                    <mxGeometry x="200" y="80" width="100" height="40" as="geometry"/>
                </mxCell>
                <mxCell id="6VO3gdrZw4tmIweeU7qc-10" value="Formula:" style="text;html=1;strokeColor=none;fillColor=none;align=center;verticalAlign=middle;whiteSpace=wrap;rounded=0;" vertex="1" parent="SlAN4rpTddr9tJkAFKHK-1">
                    <mxGeometry x="100" y="110" width="60" height="30" as="geometry"/>
                </mxCell>
                <UserObject label="V = (L x W x H) / 3" placeholders="1" name="Variable" id="6VO3gdrZw4tmIweeU7qc-11">
                    <mxCell style="text;html=1;strokeColor=none;fillColor=none;align=center;verticalAlign=middle;whiteSpace=wrap;overflow=hidden;" vertex="1" parent="SlAN4rpTddr9tJkAFKHK-1">
                        <mxGeometry x="70" y="130" width="140" height="20" as="geometry"/>
                    </mxCell>
                </UserObject>
                <UserObject label="Please enter the following&amp;nbsp;&lt;span style=&quot;background-color: rgb(30 , 30 , 30) ; color: rgb(212 , 212 , 212) ; font-family: &amp;#34;consolas&amp;#34; , &amp;#34;courier new&amp;#34; , monospace ; font-size: 14px&quot;&gt;dimensions&lt;/span&gt;&lt;span&gt;:&lt;/span&gt;" placeholders="1" name="Variable" id="6VO3gdrZw4tmIweeU7qc-12">
                    <mxCell style="text;html=1;strokeColor=none;fillColor=none;align=center;verticalAlign=middle;whiteSpace=wrap;overflow=hidden;" vertex="1" parent="SlAN4rpTddr9tJkAFKHK-1">
                        <mxGeometry x="67" y="154" width="190" height="50" as="geometry"/>
                    </mxCell>
                </UserObject>
                <UserObject label="Area: _____mm" placeholders="1" name="Variable" id="6VO3gdrZw4tmIweeU7qc-13">
                    <mxCell style="text;html=1;strokeColor=none;fillColor=none;align=center;verticalAlign=middle;whiteSpace=wrap;overflow=hidden;" vertex="1" parent="SlAN4rpTddr9tJkAFKHK-1">
                        <mxGeometry x="35" y="318" width="190" height="50" as="geometry"/>
                    </mxCell>
                </UserObject>
            </root>
        </mxGraphModel>
    </diagram>
</mxfile>